<svg xmlns="http://www.w3.org/2000/svg" xmlns:xlink="http://www.w3.org/1999/xlink" width="48" zoomAndPan="magnify" viewBox="0 0 36 36.000001" height="48" preserveAspectRatio="xMidYMid meet" version="1.0"><defs><clipPath id="f87d2fcac9"><path d="M 1.3125 0 L 34.882812 0 L 34.882812 35.027344 L 1.3125 35.027344 Z M 1.3125 0 " clip-rule="nonzero"/></clipPath><clipPath id="5b6aef8ad3"><path d="M 20.480469 16.320312 L 5.589844 16.320312 C 5.011719 16.320312 4.59375 15.769531 4.75 15.210938 L 8.835938 0.640625 C 8.941406 0.265625 9.285156 0.0078125 9.675781 0.0078125 L 24.566406 0.0078125 C 25.144531 0.0078125 25.5625 0.558594 25.40625 1.113281 L 21.320312 15.683594 C 21.214844 16.058594 20.871094 16.320312 20.480469 16.320312 Z M 10.808594 27.316406 L 12.910156 19.816406 C 13.066406 19.257812 12.648438 18.707031 12.074219 18.707031 L 4.417969 18.707031 C 4.027344 18.707031 3.683594 18.96875 3.578125 19.34375 L 1.472656 26.847656 C 1.316406 27.402344 1.734375 27.953125 2.3125 27.953125 L 9.96875 27.953125 C 10.359375 27.953125 10.703125 27.691406 10.808594 27.316406 Z M 14.679688 19.34375 L 10.59375 33.914062 C 10.4375 34.46875 10.855469 35.019531 11.433594 35.019531 L 26.324219 35.019531 C 26.714844 35.019531 27.058594 34.761719 27.164062 34.382812 L 31.25 19.816406 C 31.40625 19.257812 30.988281 18.707031 30.410156 18.707031 L 15.519531 18.707031 C 15.128906 18.707031 14.785156 18.96875 14.679688 19.34375 Z M 25.191406 7.710938 L 23.085938 15.210938 C 22.929688 15.769531 23.347656 16.320312 23.925781 16.320312 L 31.582031 16.320312 C 31.972656 16.320312 32.316406 16.058594 32.421875 15.683594 L 34.527344 8.179688 C 34.683594 7.625 34.265625 7.074219 33.6875 7.074219 L 26.03125 7.074219 C 25.640625 7.074219 25.296875 7.332031 25.191406 7.710938 Z M 25.191406 7.710938 " clip-rule="nonzero"/></clipPath></defs><g clip-path="url(#f87d2fcac9)"><g clip-path="url(#5b6aef8ad3)"><path fill="#CCFF00" d="M 1.316406 0.0078125 L 1.316406 35.019531 L 34.683594 35.019531 L 34.683594 0.0078125 Z M 1.316406 0.0078125 " fill-opacity="1" fill-rule="nonzero"/></g></g></svg>